<svg xmlns="http://www.w3.org/2000/svg" version="1.0" preserveAspectRatio="xMidYMid meet" viewBox="8.79 30.89 172.41 103.58">
<metadata>
Created by potrace 1.16, written by Peter Selinger 2001-2019
</metadata>
<g transform="translate(0.000000,200.000000) scale(0.040000,-0.040000)" fill="#000000" stroke="none">
<path d="M2775 4224 c-16 -2 -70 -9 -120 -15 -184 -23 -480 -107 -707 -200 -450 -185 -961 -535 -1082 -741 -41 -70 -60 -160 -46 -218 26 -108 140 -187 337 -234 104 -25 313 -56 374 -56 55 0 29 -17 -98 -65 -555 -207 -1100 -533 -1192 -712 -40 -80 -24 -135 52 -176 38 -20 55 -22 192 -22 195 1 361 32 676 126 92 27 174 49 183 49 9 0 -27 -36 -81 -79 -197 -160 -267 -239 -215 -242 37 -3 50 5 127 80 99 95 159 145 298 249 98 73 125 87 280 148 285 112 614 257 859 380 70 35 89 41 83 27 -14 -35 -10 -48 15 -51 18 -2 56 21 140 84 125 95 145 96 89 6 -17 -28 -28 -55 -24 -61 12 -21 64 -12 97 17 71 62 199 154 205 148 4 -3 -1 -33 -10 -66 -21 -73 -21 -75 -1 -94 24 -24 65 -19 138 17 57 29 65 31 60 15 -3 -10 2 -30 10 -43 33 -50 162 -22 249 55 l37 32 0 -41 c0 -46 34 -91 68 -91 44 0 124 33 181 75 l61 45 10 -24 c19 -52 83 -60 161 -20 28 14 53 23 56 20 16 -16 -34 -47 -193 -120 -487 -223 -647 -346 -578 -444 57 -82 319 -132 466 -88 145 42 208 136 338 504 l33 92 79 42 c80 41 148 95 148 117 0 20 -24 11 -94 -34 -70 -46 -96 -55 -96 -33 0 6 12 49 27 94 14 44 23 89 20 98 -12 30 -49 14 -81 -34 -74 -114 -167 -199 -201 -186 -24 9 -17 74 15 146 15 35 26 68 24 72 -20 33 -89 -32 -114 -107 -13 -39 -76 -94 -149 -131 -94 -47 -125 -21 -99 80 20 74 106 302 208 547 38 92 70 177 70 187 0 28 -30 37 -50 15 -10 -10 -32 -54 -50 -98 -18 -44 -71 -170 -117 -280 -47 -110 -96 -230 -109 -267 -26 -77 -59 -113 -148 -158 -70 -35 -106 -39 -106 -11 0 11 13 48 30 83 35 73 38 98 12 98 -19 0 -52 -31 -70 -66 -14 -26 -129 -104 -154 -104 -24 0 -24 30 2 98 11 29 20 61 20 72 0 36 -56 25 -150 -30 -103 -61 -113 -63 -89 -19 13 25 -4 49 -33 49 -23 0 -107 -42 -166 -82 -24 -17 -46 -27 -50 -24 -3 4 5 36 18 72 19 55 21 67 9 75 -29 18 -39 8 -87 -88 l-41 -81 -68 -1 c-77 -1 -217 -37 -372 -97 -145 -56 -439 -208 -596 -309 -153 -98 -234 -131 -554 -230 -330 -102 -527 -140 -678 -134 -92 5 -136 27 -141 72 -18 147 468 468 1076 711 259 104 365 136 507 152 231 27 355 61 355 99 0 48 -162 41 -350 -16 -85 -25 -129 -32 -230 -36 -211 -9 -481 34 -615 97 -206 97 -201 271 14 479 278 269 823 570 1260 696 227 65 368 88 546 89 138 1 171 -2 238 -22 112 -32 203 -76 253 -122 24 -22 48 -40 53 -40 24 0 41 14 41 35 0 53 -137 129 -319 176 -74 20 -301 34 -376 23z m-283 -1724 c-52 -32 -532 -234 -538 -227 -2 2 50 31 116 66 190 99 539 232 422 161z m1663 -200 c-101 -291 -184 -380 -355 -380 -105 0 -209 31 -262 78 -73 63 70 170 492 369 134 63 155 71 158 55 2 -10 -13 -65 -33 -122z"/>
<path d="M2314 1886 c-73 -73 -24 -176 82 -176 28 0 44 8 71 35 32 32 35 39 30 78 -8 58 -52 97 -108 97 -33 0 -47 -6 -75 -34z m122 2 c23 -11 44 -48 44 -78 0 -10 -12 -32 -26 -49 -47 -57 -137 -36 -150 35 -9 47 8 82 48 98 32 14 45 13 84 -6z"/>
</g>
</svg>